<?xml version="1.0" standalone="no"?>
<!DOCTYPE svg PUBLIC "-//W3C//DTD SVG 1.1//EN" 
  "http://www.w3.org/Graphics/SVG/1.1/DTD/svg11.dtd">

<?xml-stylesheet href="https://a0.muscache.com/airbnb/nabelove/locations/assets/svg_map-725a9c86eba3b939eb8fc0e65eec8e12.css" type="text/css"?>

<svg version="1.1"
  height="320" width="300" id="map_svg" class="dark-map"
  viewBox="-13638236.1852985 -4552836.50849894 17522.51338610053 14749.722320829518"
  opacity="1.0"
  xmlns="http://www.w3.org/2000/svg">
    <path d="M -13623577.67 -4544238.82 l 761.98 -248.42 14.33 487.29 -1256.43 260.36 1294.65 -4.78 862.31 950.69 -709.43 93.16 131.38 186.32 587.61 -14.33 -434.74 169.59 -547 -171.98 162.43 126.6 -88.38 628.22 379.8 -167.21 520.73 324.86 267.53 -269.92 -143.32 219.76 838.42 334.41 -351.13 200.65 573.28 -43 -102.71 355.91 -415.63 131.38 413.24 85.99 -394.13 119.43 -434.74 -243.64 582.83 547 -420.4 -78.83 539.84 398.91 -515.95 38.22 563.72 451.46 -449.07 -296.19 -131.38 169.59 422.79 348.74 -1547.85 -644.94 -351.13 -747.65 -294.9 -40.16 -217.37 346.36 -558.95 -355.91 439.51 403.68 -55.18 222.84 795.42 554.17 -432.35 769.15 242.45 286.64 175.57 -155.26 201.84 155.26 -1904.95 -128.99 -351.13 348.74 -1495.06 -4333.72 40.61 -461.01 463.4 -1184.77 z" id="n-map_san-francisco:bayview" class="" />
    <path d="M -13637795.71 -4546145.88 l 3697.9 -182.85 244.84 4319.89 -2413.99 129.11 -649.71 -243.64 -637.4 45.97 -468.77 -4063.11 z" id="n-map_san-francisco:sunset-district" class="" />
    <path d="M -13638131.14 -4547577 l -62.11 -893.36 2312.22 -171.98 -52.55 -797.81 315.3 43 152.87 -310.53 429.96 -128.99 214.98 162.43 -128.99 238.87 1304.21 148.1 1523.96 -458.62 62.11 1170.44 1226.95 -138.46 148.1 910.08 -2153.75 341.5 -5283.71 291.42 z" id="n-map_san-francisco:richmond-district" class="" />
    <path d="M -13634010.79 -4542011.32 l -2254.76 133.73 -1275.91 -204.88 169.59 1973.03 360.69 1356.76 1043.84 -2.39 905.3 465.79 57.68 -901.72 993.68 26.28 573.28 241.25 -160.04 -644.94 150.37 -2448.88 z" id="n-map_san-francisco:lakeshore" class="" />
    <path d="M -13634149.88 -4552557.26 l -638.8 2141.62 -426.54 666.25 396.52 72.85 -126.6 238.87 2075.74 46.58 3.58 -154.07 2198.76 -562.53 -176.76 -1338.84 -248.42 -308.14 -1147.91 -105.97 690.65 -246.17 -998.46 185.12 -1482.16 -826.48 -153.04 -12.13 z" id="n-map_san-francisco:presidio" class="" />
    <path d="M -13633983.16 -4544485.89 l 127.79 2475.84 407.27 -8.36 684.35 -684.35 662.85 -117.04 -488.48 -489.67 -488.48 54.94 -21.5 -396.52 403.68 -376.21 -97.34 -549.39 984.72 197.06 291.42 -804.98 304.55 -306.94 -133.76 -287.83 -384.57 155.26 -16.72 -505.2 -200.9 -287.71 -2162.93 80.02 z" id="n-map_san-francisco:inner-sunset" class="" />
    <path d="M -13627930.02 -4547008.97 l 1562.18 219.76 85.99 1275.54 386.96 406.07 -23.89 1055.79 -2078.13 176.76 -89.94 -1012.91 -499.23 23.89 -132.93 -1761.48 606.72 -630.61 z" id="n-map_san-francisco:mission-district" class="" />
    <path d="M -13627991.92 -4546955.86 l 1681.61 152.87 845.58 -203.04 -219.76 -226.92 219.95 -226.3 248.22 223.91 1115.5 -922.02 -18.57 -203.53 -237.01 -32.94 140.93 -382.19 -665.36 -659.36 286.64 -298.58 -523.12 -504.01 -2988.36 2980.2 z" id="n-map_san-francisco:soma" class="" />
    <path d="M -13627649.62 -4547773.73 l -3858.55 662.09 -83.6 -539.84 905.3 -162.43 -30.18 -1593.67 2723.07 -444.29 z" id="n-map_san-francisco:western-addition-nopa" class="" />
    <path d="M -13629267.46 -4538980.13 l 998.46 382.19 600.34 -1193.72 -203.82 -755.42 382.19 -133.76 -152.87 -917.24 -993.68 -33.44 -525.5 649.71 -912.47 1538.3 z" id="n-map_san-francisco:excelsior" class="" />
    <path d="M -13629940.4 -4541356.12 l -496.84 291.42 -386.96 707.04 -449.07 2.39 -183.93 -1213.44 -1044.16 162.9 -102.71 -745.26 296.12 -57.68 -45.38 -406.07 1109.41 -923.15 1015.18 838.42 -7.17 320.08 -377.41 226.92 197.57 261.37 726.15 0 19.11 422.79 z" id="n-map_san-francisco:sunnyside" class="" />
    <path d="M -13626058.2 -4543539.69 l -310.53 616.27 105.1 831.25 -965.02 453.84 -2027.29 12.29 952.39 -786.21 307.43 -1455.67 2076.45 -182.95 z" id="n-map_san-francisco:bernal-heights" class="" />
    <path d="M -13625336.82 -4539321.32 l 385.07 1022.93 -3007.82 -86.58 -320.08 -217.37 606.72 -1189.55 544.61 126.6 1595.62 -535.06 z" id="n-map_san-francisco:visitacion-valley" class="" />
    <path d="M -13630139.22 -4539561.34 l -735.71 -561.33 -95.55 661.66 -518.34 632.99 -1363.92 267.53 -482.51 468.18 5375.67 -292.65 z" id="n-map_san-francisco:crocker-amazon" class="" />
    <path d="M -13636061.55 -4543862.32 l 76.44 1571.74 425.18 -167.21 492.06 162.43 1667.28 -143.32 43 -1308.98 -243.64 9.55 -19.11 -257.97 z" id="n-map_san-francisco:parkside" class="" />
    <path d="M -13625203.06 -4546788.26 l 487.29 630.61 138.54 1968.25 -1323.32 66.88 4.78 -974.57 -382.19 -396.52 -95.55 -1328.09 902.91 -181.54 z" id="n-map_san-francisco:potrero-hill" class="" />
    <path d="M -13628334.69 -4544875.34 l 250.88 -22.69 -4.85 1821.34 -1375.87 105.1 -530.28 -757.2 -494.45 -31.05 287.83 -984.13 z" id="n-map_san-francisco:noe-valley" class="" />
    <path d="M -13626043.86 -4541643.09 l 511.17 1442.75 -1590.85 535.06 -549.39 -128.99 -191.09 -745.26 372.63 -148.1 -143.32 -898.14 1366.31 -520.73 z" id="n-map_san-francisco:portola" class="" />
    <path d="M -13627990.6 -4549850.79 l -195.87 -1153.72 -2543.92 403.68 64.49 494.45 -143.32 33.44 100.32 659.27 z" id="n-map_san-francisco:pacific-heights" class="" />
    <path d="M -13632477.15 -4538599.61 l 871.86 -145.71 558.95 -611.5 -494.45 -336.8 -886.19 -11.94 -7.29 -471.51 -1120.28 0 128.19 2064.01 z" id="n-map_san-francisco:oceanview" class="" />
    <path d="M -13628243.8 -4551391.47 l -2527.2 372.63 -71.66 -425.18 -565.03 -362.37 -112.27 -188.7 167.21 -93.16 -157.65 -11.94 1132.22 -198.26 -406.07 176.76 32.36 154.56 1254.04 -305.75 218.45 273.01 199.45 -66.88 -52.55 -341.58 253.2 140.93 16.72 -236.48 504.01 317.69 z" id="n-map_san-francisco:marina" class="" />
    <path d="M -13630481.46 -4543761.19 l -764.37 210.2 -800.2 -176.76 -303.36 -656.88 611.5 -47.77 219.76 -752.43 839.31 -534.99 11.92 302.79 590 401.29 z" id="n-map_san-francisco:twin-peaks" class="" />
    <path d="M -13628641.64 -4545510.72 l -81.21 -1127.45 -697.49 687.93 -46.42 -662.15 -824.09 279.47 -19.11 257.97 -396.52 243.64 38.22 410.85 577.66 347.25 -113.23 326.84 1621.9 -114.66 z" id="n-map_san-francisco:the-castro" class="" />
    <path d="M -13633226.4 -4541346.65 l 383.6 461.2 1515.07 503.75 -131.38 -1191.94 -922.69 217.62 -265.14 -296.19 153.32 -173.06 -112.27 -327.25 300.97 -57.33 -47.77 -401.29 260.36 -186.32 -759.59 138.54 -594.78 642.55 -52.02 531.18 z" id="n-map_san-francisco:balboa-terrace" class="" />
    <path d="M -13632426.99 -4539703.17 l 888.58 11.94 492.06 339.19 227.87 -1010.19 -1620.46 -329.85 -1059.95 -798.8 -59.72 1325.7 1125.06 -9.55 z" id="n-map_san-francisco:ingleside" class="" />
    <path d="M -13629172.45 -4540966.77 l -902.91 1519.19 -797.81 -673.6 439.51 -945.91 1328.09 -606.72 472.95 28.66 z" id="n-map_san-francisco:mission-terrace" class="" />
    <path d="M -13624668.96 -4545854.08 l 97.6 1671.46 1285.1 -90.77 -14.33 -300.97 -439.51 -300.97 363.08 -43 -171.98 -826.48 -611.5 -449.07 -554.17 38.22 z" id="n-map_san-francisco:dogpatch" class="" />
    <path d="M -13625217.39 -4547227.77 l -248.42 -238.87 -229.31 229.31 984.13 1084.45 673.6 19.11 138.54 -864.69 262.75 14.33 -272.31 -296.19 -33.44 162.43 -90.77 -324.86 592.39 186.32 -47.77 -391.74 -558.95 52.55 200.65 -281.86 -563.72 -114.66 z" id="n-map_san-francisco:mission-bay" class="" />
    <path d="M -13628184.74 -4542727.21 l -315.3 520.73 -1172.83 730.93 -16.72 -415.63 -724.96 2.39 -205.42 -257.97 143.32 -234.09 836.03 -162.43 167.21 -434.74 1390.2 -105.1 z" id="n-map_san-francisco:glen-park" class="" />
    <path d="M -13632085.95 -4549196.3 l 39.68 635.55 1454.69 -191.09 -217.63 -1325.87 -1308.98 315.3 z" id="n-map_san-francisco:presidio-heights" class="" />
    <path d="M -13631430.59 -4546739.05 l 541.03 -83.6 182.8 994.8 394.13 -246.03 16.72 -260.36 828.86 -281.86 -201.91 -822.81 -1839.27 329.63 z" id="n-map_san-francisco:haight-ashbury" class="" />
    <path d="M -13630785.81 -4543682.48 l -461.01 136.15 1015.18 850.36 -2.39 315.3 652.1 -217.37 113.33 -840.86 -244.84 14.33 -45.38 -562.53 z" id="n-map_san-francisco:diamond-heights" class="" />
    <path d="M -13627950.86 -4549575.99 l 1657.98 -272.43 -46.58 -284.25 -179.15 27.47 -125.66 -755.89 -1473.8 255.59 z" id="n-map_san-francisco:nob-hill" class="" />
    <path d="M -13626457.95 -4550887.36 l 1274.28 -229 187.51 -266.34 -287.83 133.76 206.62 -243.64 -106.3 -154.07 -247.23 177.95 200.65 -240.06 -228.12 94.35 112.27 -254.39 -263.95 154.07 59.72 -530.28 -267.53 177.95 52.55 -255.59 -265.14 121.82 38.22 -269.92 -108.68 273.5 -555.29 129.87 z" id="n-map_san-francisco:telegraph-hill" class="" />
    <path d="M -13632283.93 -4544241.13 l -265.14 -348.74 -253.2 11.94 97.93 513.56 -179.15 389.35 -217.37 23.89 21.5 398.91 489.67 -57.33 508.92 516.15 836.03 -738.1 -804.98 -195.87 z" id="n-map_san-francisco:forest-hill" class="" />
    <path d="M -13628298.41 -4551802.22 l 867.34 -135.08 260.36 227.52 149.63 911.99 -1100.57 194.68 z" id="n-map_san-francisco:russian-hill" class="" />
    <path d="M -13625752.1 -4551004.41 l 511.17 -109.88 429.96 573.28 -1065.34 1041.45 -57.33 -277.08 -343.97 52.55 328.28 -199.79 -299.62 -999.31 z" id="n-map_san-francisco:financial-district" class="" />
    <path d="M -13624901 -4549432.89 l -93.42 147.3 231.96 263.55 -348.74 367.85 496.84 506.4 367.85 -348.74 71.66 -1055.79 -685.81 -937.15 -262.75 248.42 528.16 507.2 z" id="n-map_san-francisco:south-beach" class="" />
    <path d="M -13627691.48 -4548008.53 l 52.55 277.08 -444.29 439.51 -1521.57 250.81 -59.72 -394.13 907.69 -162.43 -47.77 -372.63 z" id="n-map_san-francisco:hayes-valley" class="" />
    <path d="M -13631439.63 -4546734.92 l 32.25 268.72 -541.83 49.08 201.88 287.27 15.49 508.15 232.89 -197.06 247.05 329.36 592.39 -140.93 -177.77 -1202.85 z" id="n-map_san-francisco:cole-valley" class="" />
    <path d="M -13630724.23 -4550602.16 l 2534.37 -401.29 -59.72 -386.96 -2527.2 377.41 z" id="n-map_san-francisco:cow-hollow" class="" />
    <path d="M -13626183.25 -4552146.19 l 0 -492.06 -64.49 312.91 -339.19 -198.26 -74.05 -300.97 -11.94 365.46 -530.28 -50.16 -425.18 -327.25 -162.43 31.05 461.01 415.63 -542.23 -109.88 -78.83 214.98 143.32 112.27 -558.95 90.77 54.94 279.47 z" id="n-map_san-francisco:fisherman-s-wharf" class="" />
    <path d="M -13627887.56 -4549198.58 l 1285.1 -200.65 100.32 535.06 630.61 -635.38 -62.11 -286.64 -542.77 -50.94 -1480.42 239.64 z" id="n-map_san-francisco:downtown" class="" />
    <path d="M -13630049.5 -4547373.96 l 1469.02 -236.48 108.68 687.93 -1289.87 82.41 z" id="n-map_san-francisco:lower-haight" class="" />
    <path d="M -13628082.69 -4547292.66 l -1328.09 1342.43 -200.65 -1079.67 z" id="n-map_san-francisco:duboce-triangle" class="" />
    <path d="M -13627844.57 -4548892.84 l 52.55 214.98 721.37 -124.21 171.98 310.53 391.74 -372.63 -95.55 -535.06 -1285.1 191.09 z" id="n-map_san-francisco:tenderloin" class="" />
    <path d="M -13633372.86 -4542097.23 l 610.3 -606.72 661.66 -117.04 -469.37 -447.87 -863.5 54.94 64.49 916.05 -182.73 280.67 z" id="n-map_san-francisco:west-portal" class="" />
    <path d="M -13629668.1 -4547430.48 l 917.24 -157.65 -114.66 -778.7 -945.91 157.65 z" id="n-map_san-francisco:alamo-square" class="" />
    <path d="M -13627806.35 -4547574.3 l -171.98 -1074.9 912.47 -148.1 162.43 315.3 z" id="n-map_san-francisco:civic-center" class="" />
    <path d="M -13627201.76 -4551731.88 l 179.75 932.77 374.75 -56.93 -30.44 -267.8 173.76 -33.17 -152.26 -912.74 -786.47 124.21 z" id="n-map_san-francisco:north-beach" class="" />
    <path d="M -13626247.75 -4550923.19 l -434.74 -193.48 162.68 1009.09 180.09 -22.57 45.64 281.74 343.71 -58.4 -142.13 -892.16 z" id="n-map_san-francisco:chinatown" class="" />
    <path d="M -13634873.01 -4549492.71 l 52.55 -181.54 -224.53 -167.21 -425.18 143.32 -162.43 296.19 -234.09 -71.66 -33.44 587.61 687.93 -38.22 -19.11 -520.73 z" id="n-map_san-francisco:sea-cliff" class="" />
    <path d="M -13625946.38 -4549929.23 l 72.85 431.15 -647.33 644.94 -156.46 -956.66 z" id="n-map_san-francisco:union-square" class="" />
    <path d="M -13629207.12 -4549253.84 l 47.77 248.42 544.61 -85.99 -62.11 -377.41 z" id="n-map_san-francisco:japantown" class="" />

</svg>

